/* XPM */
static char *_856_a9aa62165b1f06fe0450489d6449bb141f68877bb744473b71c7eb1729ba73aa[] = {
/* columns rows colors chars-per-pixel */
"64 64 256 2 ",
"   c #150E1D",
".  c #180C1A",
"X  c #180A28",
"o  c #011C25",
"O  c #081728",
"+  c #011C2B",
"@  c #0C1B2D",
"#  c #171628",
"$  c #13162D",
"%  c #1D142D",
"&  c #100A31",
"*  c #011D32",
"=  c #0C1A32",
"-  c #011E39",
";  c #141532",
":  c #1C1432",
">  c #171933",
",  c #290A27",
"<  c #2C0C2C",
"1  c #33042C",
"2  c #39042C",
"3  c #320A2E",
"4  c #211023",
"5  c #291527",
"6  c #24132E",
"7  c #2B112F",
"8  c #260E30",
"9  c #2D0D32",
"0  c #350433",
"q  c #3B0234",
"w  c #340B32",
"e  c #380A36",
"r  c #35013B",
"t  c #3C013A",
"y  c #231431",
"u  c #271438",
"i  c #321333",
"p  c #012225",
"a  c #01232D",
"s  c #0B222D",
"d  c #01292E",
"f  c #0C2C28",
"g  c #012432",
"h  c #012A32",
"j  c #01223A",
"k  c #042939",
"l  c #033437",
"z  c #410135",
"x  c #42003B",
"c  c #4A003A",
"v  c #500031",
"b  c #004E2E",
"n  c #06733B",
"m  c #0B084E",
"M  c #160749",
"N  c #0D075D",
"B  c #0B0859",
"V  c #160754",
"C  c #13055C",
"Z  c #1D045E",
"A  c #2C024A",
"S  c #320246",
"D  c #3D0045",
"F  c #3E004B",
"G  c #2D0151",
"H  c #23025C",
"J  c #2D015C",
"K  c #350054",
"L  c #3B0054",
"P  c #34005C",
"I  c #3A005B",
"U  c #022C47",
"Y  c #012B54",
"T  c #0E0663",
"R  c #0A0468",
"E  c #130463",
"W  c #1D0363",
"Q  c #19026B",
"!  c #180874",
"~  c #230165",
"^  c #2B0065",
"/  c #25006B",
"(  c #2B006A",
")  c #340062",
"_  c #3B0063",
"`  c #35006B",
"'  c #320177",
"]  c #062B7A",
"[  c #420044",
"{  c #4B0045",
"}  c #42004A",
"|  c #4B004B",
" . c #420054",
".. c #45015C",
"X. c #450066",
"o. c #4F0275",
"O. c #740077",
"+. c #146B63",
"@. c #B21328",
"#. c #EC253A",
"$. c #B84031",
"%. c #F9453B",
"&. c #FC5A37",
"*. c #F86E31",
"=. c #B20D49",
"-. c #910763",
";. c #F40A47",
":. c #FA0154",
">. c #F82F5B",
",. c #F90677",
"<. c #FB5347",
"1. c #FA6F4C",
"2. c #FB5167",
"3. c #D07266",
"4. c #FA6E6C",
"5. c #08863B",
"6. c #139249",
"7. c #0DB275",
"8. c #59BA66",
"9. c #08CD5C",
"0. c #06D26E",
"q. c #07E26E",
"w. c #04E378",
"e. c #69CB53",
"r. c #72CD6D",
"t. c #EF8D2E",
"y. c #D6AE3A",
"u. c #F4A62D",
"i. c #90B952",
"p. c #F39555",
"a. c #F4B151",
"s. c #DFA469",
"d. c #F4B36C",
"f. c #B2C954",
"g. c #A8D867",
"h. c #F3C44E",
"j. c #E0CF68",
"k. c #110A8D",
"l. c #370190",
"z. c #1913AA",
"x. c #2D03B2",
"c. c #0F27B0",
"v. c #4A038E",
"b. c #6F028B",
"n. c #7318BF",
"m. c #086FAB",
"M. c #556898",
"N. c #2824CB",
"B. c #5C20CB",
"V. c #2253D8",
"C. c #7B55F5",
"Z. c #5065E3",
"A. c #7870F0",
"S. c #B6079D",
"D. c #FB018A",
"F. c #F41085",
"G. c #F90398",
"H. c #FC2C9B",
"J. c #F902A8",
"K. c #F113A6",
"L. c #F702B9",
"P. c #F8718F",
"I. c #FF54BC",
"U. c #FD74B0",
"Y. c #AF0BE8",
"T. c #9535EF",
"R. c #AE38E6",
"E. c #D005DC",
"W. c #F604CA",
"Q. c #EB05D9",
"!. c #EA33DB",
"~. c #CE04E5",
"^. c #F700E4",
"/. c #F531E9",
"(. c #9253F0",
"). c #B04EEF",
"_. c #8768F5",
"`. c #9967F6",
"'. c #9174F0",
"]. c #AE68F2",
"[. c #FD71CE",
"{. c #F24CE1",
"}. c #D471F3",
"|. c #EF6DEF",
" X c #089A9B",
".X c #0AAEAB",
"XX c #08D488",
"oX c #05DA95",
"OX c #02E987",
"+X c #1DE388",
"@X c #04E898",
"#X c #36EC9C",
"$X c #04D1AB",
"%X c #03EBA8",
"&X c #03EBB9",
"*X c #14E5B8",
"=X c #54EEAE",
"-X c #6BE7A8",
";X c #0490DD",
":X c #04B2D1",
">X c #03A9E7",
",X c #7892F2",
"<X c #04D0D0",
"1X c #02EDC7",
"2X c #02EBD7",
"3X c #18EDD7",
"4X c #04D1EC",
"5X c #38DFE4",
"6X c #03EAE7",
"7X c #07E7EC",
"8X c #52F0D3",
"9X c #74D0F0",
"0X c #62EBE3",
"qX c #A4AD97",
"wX c #F59096",
"eX c #F3AD92",
"rX c #EDA2A5",
"tX c #9EE899",
"yX c #8CECB6",
"uX c #DFD59C",
"iX c #CFE78D",
"pX c #E9D2AB",
"aX c #AFAAC7",
"sX c #918EEB",
"dX c #998BF4",
"fX c #9A97F4",
"gX c #AC8EEE",
"hX c #A696ED",
"jX c #A788F3",
"kX c #A798F4",
"lX c #B79CF4",
"zX c #9AA9EE",
"xX c #9CB1ED",
"cX c #9CA6F2",
"vX c #9DB8F3",
"bX c #A6A7EE",
"nX c #B6A9ED",
"mX c #A4B5EE",
"MX c #B3B3EF",
"NX c #A8A7F4",
"BX c #A4AAF3",
"VX c #B5A9F2",
"CX c #A4B6F3",
"ZX c #ACB3F2",
"AX c #B5B4F2",
"SX c #F59ED5",
"DX c #D08FF1",
"FX c #F08BF1",
"GX c #C9A9F1",
"HX c #A0ECD5",
"JX c #96D2EF",
"KX c #99C9F3",
"LX c #A5D7EE",
"PX c #A4C5F2",
"IX c #A5CAF4",
"UX c #EADEE3",
/* pixels */
"fXo O O o o + o o p U V.o o p p p p p o p A.+ O O O     . 4 4 . ZX. , , 2 2 , 2 1 1 0 mXr r r r r A A r A H bXH H Z Z & m B B B ",
"fX+ O o o o o o o + Y N.o o p p p o p o o ,X+ O   # #   . 4 4   xX. , 1 , , , 2 0 1 q mXr 0 0 r A r S A A A bXH H V ~ & B B m B ",
"sXO o o o + o o o a U Z.p p p p p p p o o ,XO O O # # 5 4   4 . zX. , , , , 2 2 1 0 t mXt 0 r r r S S A G G bXH H V H & m B B B ",
"cXO O O o + p o o p Y V.p p p p p p o p o A.+ O # # #   4 4 4 . bX. , 1 2 2 , 2 0 0 q mXr r r S S S S A A P BXH H H Z & m N B B ",
"fXo p o o p p a p p U V.p d a p d d p p O A.+ + O # 6 4 4 4 4 . ZXX e -., 2 2 2 t 0 t ZXD x r [ S S S G K P zX~ H H W M N B B R ",
"KX:X:X4X<X2X<X&X&XoX3X6X@XtX@X@X%X@Xw.w.XX5X=Xr.e.f.f.s.u.t.*.*.|.;.&.*.&.;.;.SX:.;.,.FXD.D.G.J.W.W.Q.~.~.).nX].(.`._.'.dX'.'.sX",
";X;X:X:X<XJX<X&X%XoX%X%XOX-X@X%XJX@Xw.w.q.XX0.e.i.f.qXnXp.t.*.*.4.&.&.&.#.W.G.SX:.%.:.D.,.D.J.L.}.Q.Q.E.Y.).(.].'.jX'.ZXhXfXfXfX",
"* O + + * zXp p a a p d f p d d KXo o o o + o @ f # # mX$ X 4 5 < < , 2 2 o.b.2 q q q t t D D S '.L G K S J G H H Z W zXR T N B ",
"* O o + * BXg p + p p a o p p g IXp a + + p + O @ & ; fX4 7 , , < < 1 , w o.v.q q q t t r D D D sXL K K G J J H H Z Q bXT B N N ",
"- + O O * zXg + p a a p p p a a CXp p + p o + + @ ; = fX6 , 7 7 < 1 , 1 2 ' l.e 0 2 t q t t r D sXL K G K J J H H Z Q bXB R N N ",
"- O o O * zXg + a + a a a a a g CXa p p + + + O O & ; fX, 6 7 , < 1 1 0 0 l.v.q q q t t D r S D fXP K K G P J H H ~ W vXR B N N ",
"- * + + j zXa p a a a a d a a a PXg p a + p o O $ ; > fX8 , 3 5 1 < 1 1 0 v.o.t t x t t t r D D fXI L K K J J H ~ H ~ NXx.B N E ",
"- - U - j xXk l h h l b l f b h JXh d f a g g j @ $ ; jX4 7 3 i 1 1 2 0 x b.O.q q c { x } x D D jX{ o.L X.` ) ^ ~ ~ Q mXR R ! R ",
"9X9X7X7X6X6X2X2X2X2X3X8X8XUX8X8X8X8X=X-X-XHXyXuXiXiXuXUXd.u.u.d.[.p.d.d.eXwXU.UXeXwXwX[.H.I.[.[.|.|.FXFXDXGXGXGXGXAXVXmXvXCXPXJX",
"cX+ * * * - g h a k U V.h d h d d d a s k sX- + = ; % , 8 9 9 < VX0 | 2 c 3 q z x q D AXS S F S F L I ..I ^ fX' ' / / m m B E R ",
"cX* O * g + * a h a Y Z.d a d d d a a + h fX- * = ; % % 8 8 , 9 CXr 0 0 t q q t q t t ZX} D D F L L I K K J fX~ ( W Q M N T E R ",
"fX* O + + + g a h g Y Z.= k a h a a a g * fX- = $ ; : X 8 8 9 0 mX0 0 1 0 q q t t q [ BXF D D D F L K K P ` fX( ( / ~ M V T N N ",
"cX* + + * g * + a h Y Z.g h d g h a a a * fX- * = ; : 6 8 8 8 9 CXq 0 0 q q q t t t [ mXF D D F F L K P P ) dX/ / / ~ M C T E E ",
"KX* O + * g g a h a l Z.h d a h a a a g g cX- = O ; : : 9 9 < w JXt 0 0 q q q t t t [ IX} D F D F L K I P ` BX( ( ~ ~ V C T T E ",
"KX- + * * g g g h d U V.a h l h h h a a j vX- * = : 8 6 i 8 w 0 LXq q z q q D F x x x IX} F F F L  .I I ` ` cX( / / / V N T R T ",
"KX5X4X7X6X7X2X1X1X1X2X2X*XHX*X&X1X%X@X=X#X9X=XtXg.iXuXpXa.u.u.p.|.4.p.p.1.>.H.SX4.2.>.FXD.G.L.W.^.^./.!.}.jXlX].gXNXhXfXhXfXbXcX",
"m.m.m. X XKX.X XXX7.7.XX9.0.0.XXKXXX0.9.9.7.9.8.e.qXaXgXwX1.1.<.2.%.%.#.;.Q.L.I.;.;.:.G.,.G.J.L.lXQ.Q.~.~.Y.R.(.(.(.(.IX'.C.A.'.",
"- * * * * zXs g a a h g s s h g PXh a a + * * + = ; u fX: 8 w 3 1 3 2 q z n...x x x } } D D F F kXI I P ( J ^ ( ~ ~ Q KXE R R Q ",
"- * * * * zXj g a a s h h h h k KXg g a a * * O ; > M fX9 8 9 1 3 q 2 q z B...[ t t x [ D D F L fXK I P J ^ ^ ^ ~ W / sX! T E Q ",
"- * + * * zXj + a g g a g a h h PXh g a + g * @ ; : u dXu 9 0 < 3 q 2 q q B...x t t D t D D D F kX_ P P P P ) ^ ^ / / PXR T E E ",
"- - * + j KXj h a h h a a a g h JXa a + a + + = ; : M cX9 9 w w 1 3 e q q B...x t t t D D } D F cX_ K G P ) ^ ^ / ~ Q JXE E E C ",
"- * * * h JXj * p a h h g h d h JXs g g p g p @ O & : IX9 w e t q z e q z B...c t x D F [ 2 x D IXX.G P J ) ( ^ ( ~ / JXT T T T ",
"V.>X:X:X:XKX<XoXoXoX@XoXq.q.q.oXJXXX0.9.9.7.7.6.8.qXqXsX3.3.$.$.=.@.@.@.$.E.S.S.=.=.=.=.O.-.-.O.VXb.b.b.b.v.v.v.l.l.l.KXk.k.k.k.",
"JX4X4X2X6X2X2X1X1X&X6X2X%XyX%X&X1X%X@X@X=XJX=XtXg.j.uXpXa.u.u.p.|.p.d.p.p.P.P.SX4.p.H.{.D.K.J.W.^.Q.{.|.DXDXnXlXnXnXbXmXNXNXmXvX",
"cXj * * * * g g h h Y V.a g a a d d p a h BX- * = : 6 6 < 1 w 0 ZXz z q x z x [ t x } AX} D D F L L I ` ) ` _.^ ( / / M E E E E ",
"fX- * + + * g g g g Y N.h a a a d d a + g fX- = ; : y 8 , 9 9 0 PXq q z q q e x t t [ mXD D D F F  .K I ) ` '.( / / ~ X B C E E ",
"sXU + + + * * g h g Y N.a h h h a a a a j fX- = ; : y 6 7 < w w mXt q q q q q x t t [ BXD } D } L L K P P P A.) ( ~ W   C N C W ",
"sX- * + + * g g * g Y V.h h h d a h h + - dX- = > > y i 7 9 w w ZXt 2 z 2 z z x x [ [ BX} D } D D L K I I B._.^ ^ ^ ~   B C C E ",
"dX- * g g g g g g + ] N.h d h d h a a h g kX- $ $ % y u < 3 3 w ZXt 2 z 2 z q x c x [ BX} D D [ L L K I I ' _.` ^ / W   E T C E ",
"fXj U k g g h g g l Y m.h h h h h h h +.j sXj = > y i i 7 3 2 e AXz z v x { x c c c { VX} D D } } ....I I ` _.( ( ( ^ X E E E W ",
"9X9X7X7X7X5X6X2X2X2X2X3X8XUX1X8XJX=X=X#XyXHXHXiXiXf.pXUXj.h.h.d.SXeXeXuXeXwXrXUXrXrXrX[.F.I.I./././.|.}.DXDXGXlXnXhXNXZXNXxXxXzX",
"j g * g g vXg h a h l l h l h a LXl h XXh a g @ > M.u kXw 3 i e 2 z z 1 2 R.{ | c c c { { | |  .nXo.o.X.o.v.v.v.x.v.l.PXz.x.x.x.",
"j g * * j xXg g a a h d h h h l vXl * O + a g @ > > M kX9 i 3 2 2 2 z q x `.{ c x x x t } D } } NX..I I I P _ ( ( ( / PXE C R Q ",
"- + + + - BXg + a p a a a a a k ZXh a p a + s s # > u kX7 < i 1 2 2 q q t `.| x x x [ x [ D D F NXX.K K P P ^ ) ) ( / PXE C C C ",
"- * + O * BXg a a a a a a a h k BXa + a p o o s # % M '.7 3 3 3 2 e e q x '.| c x x x x [ } D F NX..L I P P J ^ ^ ~ ~ mXE C C W ",
"- * + + - BXg a + a a a d h d h ZXa a a p + + @ # y y '.u w 3 1 3 q q z x `.| x x c x } [ } D F NXI K I P ) J P ^ H ~ mXE E Z W ",
"- * + + * mXg g g a h d h d l f ZXh a p h + s @ f 5 u sX9 w 1 1 e 2 z z t ].} x c x [ [ [ } } } kX...._ _ ) ) ) ^ ( ~ mXE W E Q ",
">X4X4X6X6X9X2X1X1X&X1X1X%X-X%X&X0X@XOXw.w.$X9.r.i.g.uXGXp.t.t.*.2.&.*.&.&.Q.J.W.#.;.:.D.,.D.J.L.DXQ.E.~.Y.R.R.(.(.`.(.mX_.C.C.C.",
",X;X:X:X<X$X$X$XoXoX2X2XOXOXOXOXoXw.q.q.0.9XXXe.i.i.s.s.y.*.*.4.FX<.1.&.<.:.:.!.#.;.D.|.D.G.J.W.^.^.^.E.R.}.lX`.`.jXjXkXhXfXfXcX",
"sX* + + O * a g a a ] c.h d d d a h g h - kXg @ # % y y 7 i w e nX0 q z q z x x { c x lX} } } } }  .L I P _ `.( ( ( ^ & Q Q W W ",
"B.* + + + a + p a a ] z.a d d a a h a a * gXj @ > y 6 6 7 3 w e MXt z q q q q x x c } kX} } F } } L L I ` X.(.` ^ ( ^ X W W W W ",
"dX- + + + a a a f h k.z.a d d a a a a a h jX= > # % 6 7 7 3 w e MXt 0 z x q q q x t } lX} [ } F L F L K I X.(.` ) ( H & Z Z Z W ",
"`.- + + a + + a d d k.c.d a a h d a h h g kX@ @ $ % 6 7 7 7 w e VXt q z x x x x t t { gX} } D F F F L K ) _ (.^ ^ ( ^ & E W Z W ",
"'.j h + g + h + p a k.c.p d d d a a g d h gX> $ % 6 7 7 i 3 i e VXz x x x x c { x c } jX} D D  .F L K I I I (.( ) ^ ^ M Z W W W ",
"A.m.m..X.X.X X7.7.7.<X.X6.5.5.5.n n b b b sXU f f f 5 i i i e z GXz z z q c c | { | { }.| [ } |  . . ...X.o.(.` ( ( ( V ~ / R B.",
">X4X4X7X<X5X2X1X*X&X&X1X*XHX&X&X3X&X%X#X=XyX-XtXiXiXpXUXd.h.h.a.wXd.d.d.d.U.rXUXeXeXwXU.G.I.I.W.|.{.|.|.DXGXGXGXVXNXVXZXZXcXcXIX",
"U * * * g ZXa h * h h k f h h U MXd h h a + @ > 6 y u dXi 3 i 2 z z x 0 9 ).x t x x [ [ t [ F F GX .X.X._ _ ` ` v.' / ZXQ ' ! x.",
"* * * + g NXa p a a a h h d h l AXh h a * a s $ # u u '.i i w e w 2 q q q `.c x x [ [ t [ D D } kX..I I I _ ) ) ^ ^ ^ sXQ ~ Z ~ ",
"- + + + * nXg p a p a d d d h d AXa p h a p s > > 5 A `.i i e w q e q q q (.{ t x x t D [ D D F kX.. .I I I P ) ^ ^ H MX~ W ~ W ",
"- * + + g VX+ + p g a a h a d h nX+ p + p @ @ @ > > u `.i 9 w e w e q x t (.| x t t D } D r D F lXL L L P P P P ) ^ ^ VXW H Z W ",
"j * + + + AX+ a p p a a a h a h VXh a h p @ O # y 5 u `.i 9 e w 0 q q q q (.x q x t [ [ D D D F lXL K I I P ) P J ^ H VX~ Z Z W ",
"j g + h a GXp a g  Xd s h f d h CXd h h s s   % # % < ].i e 3 i 2 z , c z v v v z c { D } } F L lXP ..X._ . X G A G M GX~ ~ ~ Q ",
"4X7X7X6X2X2X2X&X&X%X&X%XHX@X%X%X%XOXOXw.w.-X-Xg.f.h.y.u.t.t.*.<.2.&.&.1.&.1.SXF.4.>.,.H.J.J.L.W.W./.|.}.DX}.GXGXVXlXlXbXZXBXBXxX",
";X:X:X.X$X$X$X%XoXoXLX%X+Xw.q.q.q.9.9.9.0.AX-Xe.i.y.y.t.t.t.*.P.|.<.1.<.<.%.rX,.;.:.D.DXG.G.G.K.W.E.E.~.Y.Y.VXT.T.T.C.C._._._.A.",
"- - g + * a p a p f MXd h h a h a h h a - AXO X > # y 7 3 2 w e nX0 q q q q x c x { } nXF F D .. .} I I P ` AX( ( ( ~ V W ~ W Q ",
"- * * a + a + g a h MXh d h h d a a h g j MXs > f y y 7 < < w 0 lXe e t q q t t x [ } bXF F D L  .L K I P _ AX` ( ( ^ V W Q W H ",
"- * + + a * a a a h ZXg a a d h h a a a g AX= > % y y y 6 , 9 e NXt t q q t t t x D D VXD F } F L  .I K _ _ VX( ^ ^ ~ M W ~ ~ W ",
"j * * + a g + a a g mXh a a a a h g p a j ZXs > > % 6 6 7 i < 0 NXq q q q t q t t t } VX} D F  .L L K I _ _ ZX( ) ( ( M Q ~ W ~ ",
"j * + p + g p g a h PXh h a d a p a a a h ZXs > # 6 7 7 7 i < w VXt q 0 q t t t x x } MX} F F F  . .L P _ _ ZX` ( ( ( V ~ ~ Q / "
};
