/* XPM */
static char *_8772_05a79d44de70f2dedc98b0f83635681a82e8b3a79c04e29e602b0d3eaa26afd9[] = {
/* columns rows colors chars-per-pixel */
"64 64 114 2 ",
"   c #211F1D",
".  c #22201E",
"X  c #272221",
"o  c #2E2625",
"O  c #332928",
"+  c #352A29",
"@  c #382B2B",
"#  c #3A2D2C",
"$  c #3C2E2E",
"%  c #3F2F2F",
"&  c #413130",
"*  c #413131",
"=  c #423131",
"-  c #433232",
";  c #443232",
":  c #453333",
">  c #463333",
",  c #463434",
"<  c #4F3732",
"1  c #4A3337",
"2  c #443F31",
"3  c #4D3B3B",
"4  c #543931",
"5  c #583B30",
"6  c #3F542C",
"7  c #396D25",
"8  c #3C6029",
"9  c #367A22",
"0  c #42472F",
"q  c #58472F",
"w  c #444131",
"e  c #64402E",
"r  c #6F442B",
"t  c #7A4928",
"y  c #63522C",
"u  c #64532C",
"i  c #6F5F29",
"p  c #7A6C25",
"a  c #4F2F46",
"s  c #5A2F48",
"d  c #583046",
"f  c #552C52",
"g  c #5A295E",
"h  c #642D52",
"j  c #6F2A5E",
"k  c #60266B",
"l  c #7A276A",
"z  c #662277",
"x  c #3E4D4D",
"c  c #3C5252",
"v  c #375E5E",
"b  c #336A6A",
"n  c #2F7676",
"m  c #404646",
"M  c #564545",
"N  c #584747",
"B  c #5E4F4F",
"V  c #645353",
"C  c #6F6060",
"Z  c #7A6C6C",
"A  c #A85C1E",
"S  c #BF6519",
"D  c #864E26",
"F  c #915223",
"G  c #9D5721",
"H  c #867822",
"J  c #FE7F0B",
"K  c #F87D0C",
"L  c #E17311",
"P  c #862476",
"I  c #867979",
"U  c #33861F",
"Y  c #30931C",
"T  c #2DA018",
"R  c #27B912",
"E  c #1EDF08",
"W  c #16FF00",
"Q  c #18F902",
"!  c #91841F",
"~  c #9D911C",
"^  c #A89D18",
"/  c #BFB612",
"(  c #E1DB08",
")  c #F8F402",
"_  c #FEFA00",
"`  c #6B1F83",
"'  c #711C8F",
"]  c #76199B",
"[  c #9D1E8E",
"{  c #A81B9A",
"}  c #912182",
"|  c #8113B3",
" . c #BF15B2",
".. c #9209D8",
"X. c #9D03F0",
"o. c #A001F6",
"O. c #E10CD6",
"+. c #F806EE",
"@. c #FE05F4",
"#. c #2A8182",
"$. c #268D8E",
"%. c #21999A",
"&. c #18B1B2",
"*. c #0BD5D6",
"=. c #02EDEE",
"-. c #00F3F4",
";. c #918585",
":. c #9D9292",
">. c #A89E9E",
",. c #BFB7B7",
"<. c #E1DDDD",
"1. c #DBE0E1",
"2. c #F8F6F6",
"3. c #FEFCFC",
/* pixels */
"@.@.1.1.  1.1.J J 1.1.  B 1._ _ 1.1.    1.W W 1.1.    1.c -.1.1.    1.1.o.1.1.    1.1.3.B 1.    1.1.3.3.1.    1.1.3.3.1.&   1.1.",
"@.@.1.1.  1.1.J J 1.1.  B 1._ _ 1.1.    1.W W 1.1.    1.c -.1.1.    1.1.o.1.1.    1.1.3.B 1.    1.1.3.3.1.    1.1.3.3.1.&   1.1.",
"@.@.@.@.      J J J J   &   _ _ _ _       W W W W       c -.-.-.        o.o.o.        3.V 3.        3.3.3.        3.3.3.&       ",
"@.@.@.@.      J J J J   &   _ _ _ _       W W W W       c -.-.-.        o.o.o.        3.V 3.        3.3.3.        3.3.3.&       ",
"    @.@.@.        J J J &       _ _ _ _       W W W W   &   -.-.-.-.      o.o.o.o.      V 3.3.3.        3.3.3.        3.V 3.    ",
"    @.@.@.        J J J &       _ _ _ _       W W W W   &   -.-.-.-.      o.o.o.o.      V 3.3.3.        3.3.3.        3.V 3.    ",
"        @.@.@.        J e J         _ _ _         W W W &       -.-.-.-.      o.o.o.o.  &   3.3.3.3.      3.3.3.3.      V 3.3.3.",
"        @.@.@.        J e J         _ _ _         W W W &       -.-.-.-.      o.o.o.o.  &   3.3.3.3.      3.3.3.3.      V 3.3.3.",
"3.3.      @.@.@.@.      e J J J         _ _ _         W 6 W         -.-.-.        o.o.o.&       3.3.3.3.      3.3.3.3.  &   3.3.",
"3.3.      @.@.@.@.      e J J J         _ _ _         W 6 W         -.-.-.        o.o.o.&       3.3.3.3.      3.3.3.3.  &   3.3.",
"3.3.3.3.      @.@.@.@.  &   J J J J       _ _ _ _       6 W W W         -.-.-.        o.f o.        3.3.3.        3.3.3.&       ",
"3.3.3.3.      @.@.@.@.  &   J J J J       _ _ _ _       6 W W W         -.-.-.        o.f o.        3.3.3.        3.3.3.&       ",
"O O 3.3.>.    O O @.@.{ &   O O J J A A   O O _ _ ^ ^   ; O W W T T     O -.-.%.%.    O f o.] ]     O O 3.>.>.    O O 3.M >.    ",
"    3.3.3.        @.@.@.&       J J J J       _ _ _ _   &   W W W W       -.-.-.-.      f o.o.o.        3.3.3.        3.V 3.    ",
"    o o 3.,.,.    o o @.s  .    o o J J S     o o _ _ / &   o o W W R R   o o -.-.&.&.  - o o.o.| |     o 3.3.,.,.    o V 3.,.,.",
"        3.3.3.        @.h @.        J J J         _ _ _ &       W W W W       -.-.-.-.  &   o.o.o.o.      3.3.3.3.      V 3.3.3.",
"% %     C 3.3.% %     j h @.% %     r r J % %     i i _ > %     8 8 W W %     v v -.-.% &   g g o.o.% %   C C 3.3.% %   3 C 3.3.",
"3.3.      3.3.3.3.      h @.@.@.        J J J         _ u _         W W W         -.-.-.&       o.o.o.o.      3.3.3.3.  &   3.3.",
"3.3.- -   N N 3.3.- -   1 d @.@.- -     5 J J - -     q u _ - -     0 0 W - -     m m -., -     a a o.o.-     N N 3.3.- &   N N ",
"3.3.3.3.      3.3.3.3.  &   @.@.@.@.      J J J J       u _ _ _         W W W         -.c -.        o.o.o.        3.3.3.&       ",
"2.2.3.3..     2.2.3.3.. &   +.+.@.@.. .   K K J J . .   y ) _ _ . .     Q W W . .     =.c -.. .     X.X.o.. .     2.2.3.* .     ",
"    3.3.3.        3.3.3.&       @.@.@.@.      J J J J   &   _ _ _ _       W W W W       c -.-.-.        o.o.o.        3.V 3.    ",
"    <.<.3.X X     <.<.3.= X     O.O.@.@.X     L L J J X &   ( ( _ _ X X   E E W W X X   x *.-.-.X X     ..o.o.X X     <.V 3.X X ",
"        3.3.3.        3.V 3.        @.@.@.        J J J &       _ _ _ _       W W W W   &   -.-.-.-.      o.o.o.o.      V 3.3.3.",
"        3.3.3.        3.V 3.        @.@.@.        J J J &       _ _ _ _       W W W W   &   -.-.-.-.      o.o.o.o.      V 3.3.3.",
"3.3.      3.3.3.3.      V 3.3.3.        @.@.@.        J e J         _ _ _         W W W &       -.-.-.-.      o.o.o.o.  &   3.3.",
"3.3.      3.3.3.3.      V 3.3.3.        @.@.@.        J e J         _ _ _         W W W &       -.-.-.-.      o.o.o.o.  &   3.3.",
"3.3.3.3.      3.3.3.3.  &   3.3.3.3.      @.@.@.@.      e J J J         _ _ _         W 6 W         -.-.-.        o.o.o.&       ",
"3.3.3.3.      3.3.3.3.  &   3.3.3.3.      @.@.@.@.      e J J J         _ _ _         W 6 W         -.-.-.        o.o.o.&       ",
"    3.3.3.        3.3.3.&       3.3.3.3.      @.@.@.@.  &   J J J J       _ _ _ _       6 W W W         -.-.-.        o.f o.    ",
"    3.3.3.        3.3.3.&       3.3.3.3.      @.@.@.@.  &   J J J J       _ _ _ _       6 W W W         -.-.-.        o.f o.    ",
"    3.3.3.        3.3.3.&       3.3.3.3.      @.@.@.@.  &   J J J J       _ _ _ _       6 W W W         -.-.-.        o.f o.    ",
"    3.3.3.        3.3.3.&       3.3.3.3.      @.@.@.@.  &   J J J J       _ _ _ _       6 W W W         -.-.-.        o.f o.    ",
"3.3.3.3.      3.3.3.3.  &   3.3.3.3.      @.@.@.@.      e J J J         _ _ _         W 6 W         -.-.-.        o.o.o.&       ",
"3.3.3.3.      3.3.3.3.  &   3.3.3.3.      @.@.@.@.      e J J J         _ _ _         W 6 W         -.-.-.        o.o.o.&       ",
"3.3.      3.3.3.3.      V 3.3.3.        @.@.@.        J e J         _ _ _         W W W &       -.-.-.-.      o.o.o.o.  &   3.3.",
"3.3.      3.3.3.3.      V 3.3.3.        @.@.@.        J e J         _ _ _         W W W &       -.-.-.-.      o.o.o.o.  &   3.3.",
"        3.3.3.        3.V 3.        @.@.@.        J J J &       _ _ _ _       W W W W   &   -.-.-.-.      o.o.o.o.      V 3.3.3.",
"        3.3.3.        3.V 3.        @.@.@.        J J J &       _ _ _ _       W W W W   &   -.-.-.-.      o.o.o.o.      V 3.3.3.",
"    3.3.3.        3.3.3.&       @.@.@.@.      J J J J   &   _ _ _ _       W W W W       c -.-.-.        o.o.o.        3.V 3.    ",
"    3.3.3.        3.3.3.&       @.@.@.@.      J J J J   &   _ _ _ _       W W W W       c -.-.-.        o.o.o.        3.V 3.    ",
"3.3.3.3.      3.3.3.3.  &   @.@.@.@.      J J J J       u _ _ _         W W W         -.c -.        o.o.o.        3.3.3.&       ",
"3.3.3.3.      3.3.3.3.  &   @.@.@.@.      J J J J       u _ _ _         W W W         -.c -.        o.o.o.        3.3.3.&       ",
"3.3.      3.3.3.3.      h @.@.@.        J J J         _ u _         W W W         -.-.-.&       o.o.o.o.      3.3.3.3.  &   3.3.",
"3.3.      3.3.3.3.      h @.@.@.        J J J         _ u _         W W W         -.-.-.&       o.o.o.o.      3.3.3.3.  &   3.3.",
"        3.3.3.        @.h @.        J J J         _ _ _ &       W W W W       -.-.-.-.  &   o.o.o.o.      3.3.3.3.      V 3.3.3.",
"        3.3.3.        @.h @.        J J J         _ _ _ &       W W W W       -.-.-.-.  &   o.o.o.o.      3.3.3.3.      V 3.3.3.",
"    3.3.3.        @.@.@.&       J J J J       _ _ _ _   &   W W W W       -.-.-.-.      f o.o.o.        3.3.3.        3.V 3.    ",
"    3.3.3.        @.@.@.&       J J J J       _ _ _ _   &   W W W W       -.-.-.-.      f o.o.o.        3.3.3.        3.V 3.    ",
"I I 3.3.#     P P @.@.# &   D D J J # #   H H _ _ # #   2 9 W W # #     n -.-.# #     z f o.# #     I I 3.# #     I I 3.: #     ",
"3.3.3.3.      @.@.@.@.  &   J J J J       _ _ _ _       6 W W W         -.-.-.        o.f o.        3.3.3.        3.3.3.&       ",
"3.3.+ +   [ [ @.@.+ +   4 G J J + +     ~ _ _ + +     Y 6 W + +     $.$.-.+ +     ' ' o.; +     :.:.3.3.+     :.:.3.3.+ &   :.:.",
"3.3.      @.@.@.@.      e J J J         _ _ _         W 6 W         -.-.-.        o.o.o.&       3.3.3.3.      3.3.3.3.  &   3.3.",
";.;.    @ @.@.} }     @ e J F F     @ @ _ ! !     @ @ W w U     @ @ -.-.#.    @ @ o.o.` &   @ @ 3.3.;.;.  @ @ 3.3.;.;.  : @ 3.3.",
"        @.@.@.        J e J         _ _ _         W W W &       -.-.-.-.      o.o.o.o.  &   3.3.3.3.      3.3.3.3.      V 3.3.3.",
"    $ $ @.l l     $ $ J < t     $ $ _ _ p     $ $ W W 7 &   $ $ -.-.b b   $ $ o.o.k k   : $ 3.3.Z Z     $ 3.3.Z Z     $ V 3.Z Z ",
"    @.@.@.        J J J &       _ _ _ _       W W W W   &   -.-.-.-.      o.o.o.o.      V 3.3.3.        3.3.3.        3.V 3.    ",
"    @.@.@.        J J J &       _ _ _ _       W W W W   &   -.-.-.-.      o.o.o.o.      V 3.3.3.        3.3.3.        3.V 3.    ",
"@.@.@.@.      J J J J   &   _ _ _ _       W W W W       c -.-.-.        o.o.o.        3.V 3.        3.3.3.        3.3.3.&       ",
"@.@.@.@.      J J J J   &   _ _ _ _       W W W W       c -.-.-.        o.o.o.        3.V 3.        3.3.3.        3.3.3.&       ",
"@.@.      J J J J       u _ _ _         W W W W W     -.c -.        o.o.o.        3.3.3.&       3.3.3.3.      3.3.3.3.  &       ",
"@.@.      J J J J       u _ _ _         W W W W W     -.c -.        o.o.o.        3.3.3.&       3.3.3.3.      3.3.3.3.  &       ",
"1.1.    1.J J 1.1.    1.u _ 1.1.    1.1.W 1.1.W W 1.1.-.B 1.    1.1.o.o.1.    1.1.3.3.1.&   1.1.3.3.1.1.  1.1.3.3.1.1.  B 1.    ",
"1.1.    1.J J 1.1.    1.u _ 1.1.    1.1.W 1.1.W W 1.1.-.B 1.    1.1.o.o.1.    1.1.3.3.1.&   1.1.3.3.1.1.  1.1.3.3.1.1.  B 1.    "
};
