/* XPM */
static char *_3217_5383533ed3e089adc2d365aeb8a1bba7b69317ac645dba350103272a19a55b11[] = {
/* columns rows colors chars-per-pixel */
"64 64 224 2 ",
"   c #010001",
".  c #080006",
"X  c #060009",
"o  c #0B000B",
"O  c #11000E",
"+  c #0E0010",
"@  c #130013",
"#  c #190016",
"$  c #150018",
"%  c #1C001B",
"&  c #22001D",
"*  c #1E0020",
"=  c #240023",
"-  c #290025",
";  c #260029",
":  c #2B002B",
">  c #31002E",
",  c #2E0031",
"<  c #340033",
"1  c #390035",
"2  c #360039",
"3  c #3B003B",
"4  c #41003E",
"5  c #3E0042",
"6  c #440043",
"7  c #490045",
"8  c #450049",
"9  c #4C004C",
"0  c #51004E",
"q  c #4E0153",
"w  c #4D0359",
"e  c #530053",
"r  c #5A0054",
"t  c #56025B",
"y  c #5C015D",
"u  c #57085F",
"i  c #60015B",
"p  c #540563",
"a  c #5D0363",
"s  c #5D0864",
"d  c #5C096D",
"f  c #5A0770",
"g  c #630164",
"h  c #6B0066",
"j  c #65036B",
"k  c #6A026C",
"l  c #620A6B",
"z  c #6A086E",
"x  c #6D0473",
"c  c #690675",
"v  c #6C0A76",
"b  c #730173",
"n  c #74057B",
"m  c #7A037C",
"M  c #760879",
"N  c #740B7C",
"B  c #691677",
"V  c #6A1579",
"C  c #71167E",
"Z  c #6A217C",
"A  c #83017F",
"S  c #7D0482",
"D  c #7B0B85",
"F  c #7B0C84",
"G  c #671A84",
"H  c #6D1D83",
"J  c #751784",
"K  c #7B1486",
"L  c #7D1489",
"P  c #7D1B8B",
"I  c #7E1A91",
"U  c #692280",
"Y  c #6D248D",
"T  c #722186",
"R  c #74238A",
"E  c #7A218B",
"W  c #782B8D",
"Q  c #772C91",
"!  c #7B2D92",
"~  c #7D3298",
"^  c #820283",
"/  c #810C85",
"(  c #860589",
")  c #830C8C",
"_  c #91078F",
"`  c #82158B",
"'  c #811C8D",
"]  c #89188E",
"[  c #8D0896",
"{  c #930195",
"}  c #97069B",
"|  c #851592",
" . c #891795",
".. c #8C1B9B",
"X. c #95169B",
"o. c #852395",
"O. c #8B2495",
"+. c #852798",
"@. c #8B259B",
"#. c #842B9A",
"$. c #8B2B9D",
"%. c #91229E",
"&. c #863A9F",
"*. c #990BA1",
"=. c #991AA2",
"-. c #AB00AC",
";. c #A41BAC",
":. c #A51EB2",
">. c #8928A3",
",. c #9225A4",
"<. c #922CA4",
"1. c #9B27A9",
"2. c #962DAB",
"3. c #8A36A5",
"4. c #9538AB",
"5. c #9F2BB0",
"6. c #9836B4",
"7. c #9B3DB1",
"8. c #A424AE",
"9. c #A039AF",
"0. c #A92AB6",
"q. c #B22CBA",
"w. c #A538B8",
"e. c #8944A4",
"r. c #8845A9",
"t. c #8C4AAD",
"y. c #9145AB",
"u. c #9451AF",
"i. c #8348B1",
"p. c #9C43B2",
"a. c #974CB5",
"s. c #9C45BB",
"d. c #9B4CBA",
"f. c #8B55B7",
"g. c #9352B3",
"h. c #9856BA",
"j. c #AB41BE",
"k. c #A549B8",
"l. c #B44ABF",
"z. c #A453BE",
"x. c #8E64B7",
"c. c #8D63BA",
"v. c #9461BB",
"b. c #9A62BC",
"n. c #BD13C6",
"m. c #B82DC6",
"M. c #B839C4",
"N. c #B33CC8",
"B. c #C003C7",
"V. c #C137CD",
"C. c #9555C1",
"Z. c #9D59C5",
"A. c #AB49C5",
"S. c #B846C9",
"D. c #A955C4",
"F. c #AA5DC4",
"G. c #AB5CC9",
"H. c #B556CA",
"J. c #BB4AD3",
"K. c #A75FD3",
"L. c #BA5CD5",
"P. c #9A66C5",
"I. c #9F76C9",
"U. c #A361C4",
"Y. c #A766CA",
"T. c #AB62CA",
"R. c #B266CD",
"E. c #A777CC",
"W. c #B579CA",
"Q. c #AB64D1",
"!. c #B364D3",
"~. c #BB64D3",
"^. c #B46CD5",
"/. c #BC69D9",
"(. c #A977D4",
"). c #B977D7",
"_. c #BD7BDB",
"`. c #BD5EEA",
"'. c #B278E4",
"]. c #C455C8",
"[. c #C25DD5",
"{. c #C459DC",
"}. c #C162CB",
"|. c #C168D9",
" X c #C277DB",
".X c #C16FE4",
"XX c #9F87CA",
"oX c #A684CE",
"OX c #A988CA",
"+X c #A98ECB",
"@X c #B687CD",
"#X c #A995CF",
"$X c #B697CD",
"%X c #A485D7",
"&X c #AA84D3",
"*X c #B788D6",
"=X c #B582DA",
"-X c #BD84DB",
";X c #B895D5",
":X c #B6A1D1",
">X c #BB88E2",
",X c #C390D8",
"<X c #C6A8D9",
"1X c #C386E3",
"2X c #C798E8",
"3X c #D0A8E6",
"4X c #C7B9E6",
"5X c #CBBEE5",
"6X c #D2BAE6",
"7X c #B4D3DE",
"8X c #BCE6DE",
"9X c #D7C5E7",
"0X c #DCD1EF",
"qX c #E9CCF2",
"wX c #EAD1F0",
"eX c #E8D5F3",
"rX c #DAF9F8",
"tX c #EDE5F9",
"yX c #F9E8FC",
"uX c #ECF3F7",
"iX c #FCFDF4",
"pX c #FDF5FE",
"aX c #F3FBFF",
"sX c #FDFCFD",
/* pixels */
". . $ < g h.W.C 3 #                       . = 0 ' sX2.y < # X . . . . . o $ : y <.sX+.9 = .                       # 3 W 9Xi.p , ",
"      % 8 E ;Xy.r - O                     @ 1 k l.T.N 3 %                   $ 2 c R.F.z 1 @                     o : u g.#XG 2 $ ",
"      O : g k.@XC 4 #                   . & 0 ] iX<.y : o                   o = q $.sXO.9 - .                   # 4 E tXi.w * X ",
"      . # 4 P $Xy.y : o               . $ 3 z H.G.n 3 $                       @ 1 v T.U.x 1 $ .             . O : s h.XXU 5 @   ",
"        o > y a. X` 9 - % @ @ @ @ @ @ & 1 i %.iX,.t : o                       . = e $.sX$.y < & @ @ @ @ @ @ % : q ! yXi.w * X   ",
"        . # 8 ` @Xk.b r 4 1 1 1 < : 3 4 i ( H.L.M 4 #                           @ 3 n L.}.( i 6 3 1 < 1 1 1 6 e n K.%XG 5 +     ",
"          o 1 b S.*X9.] R Z Z Z Z Z Z E %.q.sX8.g : o                           o - g 1.sXM.X.J C V V B V V J  .w.sXs.p : X     ",
"          o , g 0.;X0X0X9X9X9X5X5X5X4X5X3X6X|.} y - X                             = e [ |.*X_.*XOXoXoXoXoX&X(.-X>X>X>.w = X     ",
"          o < h q.sX/.Y.b.v.x.v.x.x.v.U.R.|. X=.y : o                           . = e [  X|.~.Y.b.b.b.b.b.b.U.R._.9X>.w ; X     ",
"          $ 4 S ~.~.*.n s p u u u u p c S 8.qXw.j < o                           o : g w.sX0.( b l s s s l s z F 1.;XZ.f , X     ",
"        . = e $.sX2.g 6 : : - ; : - : 2 e m A.).F 8 %                           $ 5 N ^.D.^ e 3 : - : : : , 1 9 k d.0XY 5 $     ",
"        $ 1 v R.G.M 6 & @ . o . X . o # : 9 ` 6X7.i : o                       o = t 4.yXO.e > $ o o O O o o @ - 8 J +Xf.p ; o   ",
"      o = e $.sX+.q - o                 @ > g p.OXL 8 $                       # 4 N (.k.j < @                 o - t t.tXY 5 $   ",
"      @ 1 M Y.F.j 1 @                   . % 8 ` ,Xp.y : o                   o : r 3.yX' 8 % .                   @ 2 C #Xf.p ; X ",
"    o - e 3.sX+.q = .                     + : g p.).L 8 & .               . % 5 J '.k.g > +                     . = e t.aXY 5 * ",
"@ $ - 8 D ^.D.j 1 @                         % 8 L $X9.j 3 * @ o o o o o + % 1 g 4.9X] 7 & .                       @ 1 G #XC.f 2 ",
"< 3 0 b 9.pXO.0 = o                         o < j w.;XX.g 6 < : : : : : < 4 i `  Xk.g < O                         . = e y.sX~ p ",
"l v / ;.|.H.M 3 @                           o % 9 [ W.S.[ M g s s s s s s M [ S.:X..0 & .                           @ 5 P *XK.[ ",
"E.Y.).|.yXq.h < o                             # 8 S ].$X[.F.U.v.h.v.h.b.Z.U.].*XJ.( 6 #                             o 1 h A.sX^.",
"E.E.^. XpX0.j 1 +                           . # 8 ( M.tX X1X@XoXoXoXoXoX&X,X,X9X].m 6 #                             + 1 k A.sX>X",
"l v L ;.|.L.n 5 @                           . = 0 _ W.].X.` C B B B B B C ` X.].'.] 9 &                             $ 1 F ^.'.1.",
"< 3 e b 0.sX@.q = .                         + : g w.iXX.h 0 4 1 1 1 1 1 4 9 h X.2Xw.y > O                         . = 9 &.iX6.x ",
"o @ - 7 N R.D.x 1 @                       . % 8 m W.j.b 7 - # @ @ O O @ @ - 4 k k.).K 6 #                         o , B (.(.M 8 ",
"    o - t >.sX+.9 = .                     o < g 9.pX] 0 & o               o & 6 K $Xp.y : o                     . & 9 3.iX~ 8 = ",
"      @ 1 v Q.G.v 1 @                   . & 7 / 3X9.h > +                   o : y p.@XK 4 %                     + 1 B I.P.d , + ",
"      o = e >.sX@.q = o                 O > g 9.yX) 7 & X                     % 4 ` OX7.y : O                 o * 9 3.sX#.8 % X ",
"        $ 1 v T.Y.M 6 % o o o o X X o $ - r / wX9.i > O                       O : y p.W.` 7 & @ X .   . . X o & 3 V E.P.l , +   ",
"        . = e $.sX1.j 8 > : : : : : : 1 0 A w.wX/ 7 & .                       . # 6 ` @Xj.b 7 > - = = = = - : 6 g y.sX~ 8 % .   ",
"          # 5 n L./.X.m j p p u p t a j ^ ;.yXq.k 1 o                           o : h k.@X;.b g e q 9 q 9 e y k ..*XY.c < +     ",
"          o < g 0.sX[.D.h.h.g.g.g.f.f.D.J.L.,XX.i - o                           o - e X.@X[.j.a.e.e.e.e.e.e.y.k.L.sX2.t ; o     ",
"          o < g 0.*X;X;X$X#X+X:X:X:X:X<X<X3X~.} r & .                           . & 0 { }.sXsXsXsXsXsXsXsXsXsXsXsX>X%.e = X     ",
"          @ 2 M M.@Xq...I Y U H U T H o.1.M.pX=.i - O                           o - r =.<X].8.#.! Q ! Q W ! #.2.H.sXp.s ; o     ",
"        . = 8 P @Xj.m y 7 5 3 3 3 1 4 0 g [ /.H.x 1 @                           o < k z. XX.h e 8 6 6 6 8 8 9 g ) ^.E.V 2 @     ",
"        + : a p.>X| e > % # # # $ $ # = 1 a 2.sXO.0 = .                       . & 7 ' eXw.k 6 - % % % # # % * 2 t $.aX&.q * .   ",
"      . # 8 L *X4.g > $               . % 4 M R.z.z 1 O                       O < g z.^.F 8 % X .     .   . X $ < z Y.E.B < O   ",
"      + : g d.=XK 8 % .                 . = e ,.sXO.0 & o                   . & 7 ' pX3.t - o                 . % 8 ~ sX~ 9 = X ",
"    . % 8 ' <X4.y : o                     $ 1 n Q.F.z 3 #                   @ < g z.^.M 3 $                     o < l P.%XV , $ ",
"  o $ 1 j d._.K 5 #                       . - e @.sXO.r - O .   .         + - 0 O.pX3.t - o                     . % 8 ! sXr.w ; ",
"* - 1 a ..wX6.y : o                         $ 1 v L.H.N 0 : % % # # # # % - 7 M D.Y.M 3 $                         o , l P.(.J q ",
"9 e h ( S.).F 8 #                           o - e <.iX8.b i 4 4 4 4 4 4 7 r b 8.sX2.t : o                         . % 9 #.sXs.m ",
"! $.5.M.yXM.b 2 @                             % 8 ( [.[.0.$.! ! W W W W ! O.0.|.{.) 8 *                             @ 3 N !.1Xw.",
"pXsXpXsX1X:.j < o                             # 8 m V.iXsXsXsXsXsXsXsXsXsXpXsXiXJ.S 8 #                             o < k N.sXsX",
"3.3.6.N.sXq.b < $                           X % 8 ( ].R.S.s.y.r.r.r.r.r.t.s.J./.].( 4 #                             + < c S.9XH.",
"q t c { S. XF 8 # .                         o : t =.uXm.( h t q q q q q t j S w.sX,.e - X                           % 8 I <XD.) ",
"- ; 5 a ..yX2.p : o                         $ 1 x A./.) t 2 ; - - = = - ; 2 e D ^.z.c 1 @                         o : p g.<XI t ",
"X o % 2 c A.).N 5 %                       o - e ,.rX1.g < # X X X X X X X @ : u 3.sX+.9 = .                       # 4 E 9Xf.p < ",
"    o * 8 I yX4.y : o                     @ 3 m A.H.n 3 #                   $ 2 x T.F.z 2 @                     o : a f.;XH 3 $ ",
"      + , a s.W.K 6 %                   o - t ..8X,.t : o                   . - e $.sXo.q = .                   # 5 R tXi.w - o ",
"      . % 8 I 0X6.g : $         .     X % 6 S J.K.n 5 $                       @ 2 v U.T.x 3 # .               @ > s h.OXH 3 @   ",
"        o , j s.W.) e < = # # # # # % - 3 g =.7X..t ; o                       . = q $.aX<.y 1 & @ @ @ @ @ @ % , q o.pXt.e ; X   ",
"        X * 8 I 3XN.S y 7 4 4 3 3 3 6 0 h } L.J.m 5 #                           @ 2 n L.}.( g 7 3 1 1 1 1 3 6 t S K.&XJ 1 $     ",
"          @ 2 x S.>Xq.X.L J J C C C K ` =.m.rX:.j , o                           o : y 1.iXS.%.E U U U U U U T ..j.iXs.s , o     ",
"          o , j ;.<X X1X-X=X).=X=X=X=X1X X1X{.} t - o                           . = e [ .XqXwX9X0X9X9X4X9X4X4X6X5X2X,.e ; .     ",
"          o , f 0.sX].l.z.u.u.u.u.u.a.z.].[./.} t ; X                             = t ..). XL.P.v.f.c.c.c.c.P.Y. XpX2.e ; .     ",
"          @ 3 n H./.=.A h i y i y i i h ( ;.pXw.g < o                           o : a 7.eX0.F j p p u u w p l N ,.,XU.l , o     ",
"        . = q +.sX2.k 7 < > > : > > < 4 r m l.).D 8 #                         . $ 3 F '.D.n 9 1 : ; - : * ; 2 8 z d.pXW 8 #     ",
"        + 2 k Z.~.M 6 = O O . o . o o % > 0 ] sX4.a , o                       . ; t 4.6Xo.e : @ o X X . . o @ & 5 H +XP.u ; o   ",
"      X * q +.iX$.e - o                 @ 1 g k.R.F 8 %                       # 2 J (.Z.g > @                 o = t t.iXW 5 %   ",
"      + 2 c K.T.v 1 @                     & 9 ` yX6.a : o                   o : p 4.$XP 8 *                     @ < B +XP.p : o ",
"    o = q #.sX#.0 = X                     O < g k.W.K 8 % o               X # 5 J >Xd.s : o                     X = w r.aXQ 8 % ",
"o + = 5 n T.F.z 1 @                       . & 7 L tXw.j 1 & @ o o O o o @ = 1 a 7.;XI 8 %                         @ 2 V XXP.l 2 ",
", 2 8 k 1.iXO.9 & .                         O 1 g w.,X .g 6 < : : : : : , 5 a | >Xs.j : o                         X = q i.pX>.a ",
"p f n } `.L.M 4 #                             & r ] qXm.{ b g y y y y y g x { N.>X..q % .                           @ 8 J =X/.[ ",
"{ } -.n.sX8.h < O                           . & 4 A q. XB.-.} { { { { { } -.n.^.].m 8 #                             + < k A.sXn."
};
