/* XPM */
static char *_1112_165710aded9ddbf9be50685cd7fd9d03a46fbb938ed1041f86012c7a5d1b78d6[] = {
/* columns rows colors chars-per-pixel */
"64 64 256 2 ",
"   c #010101",
".  c #0A0303",
"X  c #0B0606",
"o  c #020A02",
"O  c #03020A",
"+  c #020C0B",
"@  c #140202",
"#  c #190605",
"$  c #041707",
"%  c #01130D",
"&  c #171702",
"*  c #050615",
"=  c #150117",
"-  c #011513",
";  c #021A18",
":  c #270304",
">  c #370305",
",  c #261901",
"<  c #381601",
"1  c #320218",
"2  c #052805",
"3  c #192803",
"4  c #073904",
"5  c #163604",
"6  c #012518",
"7  c #063619",
"8  c #282702",
"9  c #352602",
"0  c #273602",
"q  c #383902",
"w  c #2D331C",
"e  c #090B2F",
"r  c #190126",
"t  c #2D022B",
"y  c #38033A",
"u  c #022826",
"i  c #05322D",
"p  c #023636",
"a  c #470602",
"s  c #590403",
"d  c #500C0C",
"f  c #700B06",
"g  c #452A01",
"h  c #473A02",
"j  c #563002",
"k  c #6F2E05",
"l  c #693A03",
"z  c #520230",
"x  c #6C012D",
"c  c #024707",
"v  c #174701",
"b  c #055A06",
"n  c #175802",
"m  c #014A18",
"M  c #025617",
"N  c #274702",
"B  c #384802",
"V  c #285601",
"C  c #395402",
"Z  c #066903",
"A  c #176401",
"S  c #077602",
"D  c #187701",
"F  c #026816",
"G  c #07751A",
"H  c #2C6E02",
"J  c #03532F",
"K  c #034938",
"L  c #026528",
"P  c #01782F",
"I  c #016938",
"U  c #474902",
"Y  c #584801",
"T  c #475602",
"R  c #585602",
"E  c #6D5002",
"W  c #4D6A04",
"Q  c #6E6A02",
"!  c #190145",
"~  c #0B0A52",
"^  c #040158",
"/  c #3B0246",
"(  c #2B0350",
")  c #022647",
"_  c #023946",
"`  c #023358",
"'  c #030668",
"]  c #160165",
"[  c #090C70",
"{  c #2D0170",
"}  c #03326D",
"|  c #4E0547",
" . c #470158",
".. c #580257",
"X. c #6A0250",
"o. c #4F026D",
"O. c #730170",
"+. c #6E2470",
"@. c #024848",
"#. c #025748",
"$. c #014B57",
"%. c #045A57",
"&. c #224E54",
"*. c #026D49",
"=. c #026755",
"-. c #044D6D",
";. c #025968",
":. c #016A67",
">. c #037270",
",. c #910B04",
"<. c #AE040B",
"1. c #903301",
"2. c #AF2C01",
"3. c #93012D",
"4. c #AD022C",
"5. c #CA060A",
"6. c #F40C10",
"7. c #F62F0F",
"8. c #E52F16",
"9. c #D0012F",
"0. c #F80830",
"q. c #8E4D05",
"w. c #AB4B04",
"e. c #886A03",
"r. c #A47207",
"t. c #E45618",
"y. c #910152",
"u. c #B00152",
"i. c #8C0272",
"p. c #B10171",
"a. c #CA014D",
"s. c #F30451",
"d. c #F53057",
"f. c #CD016F",
"g. c #FA0773",
"h. c #F5604C",
"j. c #F9506C",
"k. c #FD726F",
"l. c #068604",
"z. c #0A8D0E",
"x. c #049705",
"c. c #2F8C03",
"v. c #03AC0D",
"b. c #14A91C",
"n. c #018926",
"m. c #528E05",
"M. c #6E8A02",
"N. c #5DB315",
"B. c #04CE0C",
"V. c #0FE906",
"C. c #02DA31",
"Z. c #1FEB22",
"A. c #55D510",
"S. c #068B52",
"D. c #038D6E",
"F. c #01A863",
"G. c #16DB58",
"H. c #60EC5E",
"J. c #8E9405",
"K. c #AB9711",
"L. c #EC990C",
"P. c #E0E613",
"I. c #CDD14A",
"U. c #0C058F",
"Y. c #2F0395",
"T. c #063088",
"R. c #0804AA",
"E. c #2D14B4",
"W. c #012FB0",
"Q. c #510191",
"!. c #76008A",
"~. c #4C05AF",
"^. c #7203B0",
"/. c #024F92",
"(. c #026F91",
"). c #2D7980",
"_. c #0250B2",
"`. c #0371B4",
"'. c #0B09D1",
"]. c #2701D6",
"[. c #0136CD",
"{. c #0A0CF8",
"}. c #1918FE",
"|. c #3014F9",
" X c #092FF9",
".X c #1934FE",
"XX c #2826FD",
"oX c #3829FB",
"OX c #2837FE",
"+X c #3737FB",
"@X c #5800D6",
"#X c #7202D5",
"$X c #4804FA",
"%X c #4D14FA",
"&X c #700AF8",
"*X c #4C31FE",
"=X c #6F2EFD",
"-X c #024AD0",
";X c #0470CD",
":X c #0D4CF7",
">X c #2F4FFC",
",X c #0466F3",
"<X c #2674F9",
"1X c #514FFB",
"2X c #586DF5",
"3X c #6A6CFB",
"4X c #870291",
"5X c #960196",
"6X c #B10292",
"7X c #812683",
"8X c #9001AB",
"9X c #9700B7",
"0X c #AB01B1",
"qX c #D00291",
"wX c #F70594",
"eX c #FD269C",
"rX c #D103B2",
"tX c #F102B1",
"yX c #FD5092",
"uX c #FD5EAE",
"iX c #8E02D2",
"pX c #AF01CE",
"aX c #8E0AFA",
"sX c #AC0CF3",
"dX c #8D2EFC",
"fX c #B226FE",
"gX c #CC02D0",
"hX c #F006D5",
"jX c #CD07F3",
"kX c #ED0AF4",
"lX c #EE2DEA",
"zX c #8E4CFD",
"xX c #AC53E9",
"cX c #8B71FB",
"vX c #F84DF9",
"bX c #EF65E9",
"nX c #028A8A",
"mX c #02AB90",
"MX c #0292AD",
"NX c #0BA9AD",
"BX c #0DD79D",
"VX c #4DF1A7",
"CX c #169DE9",
"ZX c #5B98FA",
"AX c #09CDD3",
"SX c #20D7EE",
"DX c #60DDE9",
"FX c #FD87B1",
"GX c #FCA1A3",
"HX c #8EFEA0",
"JX c #EFE6AD",
"KX c #9D8FF7",
"LX c #B5ACFC",
"PX c #E592F8",
"IX c #9CDDFD",
"UX c #ECE9EC",
/* pixels */
"6.5.o     . i.X...vXjXkXfX^.o   O   =XoX*X1X X:X~ * e MXO o u >.:.=.=.BX$ .   7 G B.S       $ n N N T T B q q h X E E < < < . : ",
"d.0.o       . = X . z . X . Q.&X&X%XKX1X>X1X2X XO O O _.(.        =.#.K L   $ w b o c Z.Z D c.V V C T W U U U Y & j q.1.1.,.5.GX",
"<.6.9.3.y.y.p.hXhXkX0X=       . O   O O U.>X'. X:X-X`.`.-.@.@.@.@.#.#.=.I I L F G G S l.x.c.c.A.W m.M.J.R R R   O     @ O * 7.UX",
"s s a.d.yXf.6X6Xi.4XjX!.!.9XiX&X&X%X|.XX+X{.{.>X' ) ) ) -.$.$.@.#.:.i VXS.P o O       . .   O O o O o B q q U Y O       O k X X ",
"    O a.1 z   6X= = !.gX^.iXaXaXzX%X].].e e e  X:X_.`.`.`.;.;.=.#.=.u ; J J L F       . o       o m.C T 3 8 R Q Y h l k 1.2.5.<.",
"      O         = O O | jXsXiXr e o * * '.^     O o o ` -.>.(.D.D.mXmX*.*.G.P m M + G l.D A A V V B H K.J.J.J.e.j j l 1.2.8.5.5.",
"<.<.4.9.g.f.6XqXbXhXgXpXjX  O O     =X*XUXXXOX X-X_.} `.(.&.p p p u o + + m G.G F z.    o   o $ H N q O         e.E E w.t.7.7.7.",
"<.<.4.a.g.qXqXrXO O     o ^.      X |.1X3X+XOX X[.-X;Xo .   . . ; O     O O 2 7 M x.S S   $ n N W m.& T &   O   + .         7.s ",
"5.5.9.s.eXeXtXhX5X5X5X9XjXiX#X@X@X|.$X|.*X1X>X.X:X,XCX/.-.-.>.DX  - O   O   P b.v.x.S S Z n A H N.N.W T T U U R E E j j f k 5.7.",
"6.0.0.yXg.p.p.i.6X5X0XpXjXsXiX#X&X%X|.U.U.XXOXZX:X:XCXCX(.nXmXIX>.=.%.I I L L 2 ; o O O Z D H n B O o O     X Q e.E l l k ,.,.5.",
". .       X.X.qXgX0XgXkXlXsXaXdXzXzXcXR.^ '.R.[ }       + O @.nX%.=.=.7           o O     n c.A.V C q O     R K.K.e.q.w.t.7.,.,.",
"                    t 9XsXsXo.{ .       O O + *  X_.X -.-.>._ NX;.mX=.K J   . 7 M x.l.S Z n c.n N C C U T Y q h j , < < > a . . ",
"  O     . p..   X.4XpX/  . .xX#X.         }.>X>X:X_./.-.-.-.; * ; #.D.J J I L F F v.x.x.l.A v o         o R P.&   O & X d s 6.6.",
"5.5.4.4.u.wXtXrXgXlX..  O O O ~.=X%X%XoXXXXX>X2X<X,X`./.(.(.p ; +         O   G n.B.v.x.c.H.v N N   w B T Q JXe.Q   .   o   o o ",
"5.9.4.4.a.eXtXtXhXlX.     .     =X=X*XoX}.1X^ * O O CXZXSXMXNX$ @.u         m n.z.Z.B.v.l.A.7 H V C B B U U e.Q K.l k O . f 2.X ",
"6.6.9.a.g.eXhXlXlXbX4X4X9XiXaX&XdX=X*X*XLX{.e * O O O _ p i % SX@.K K I J L J C.C.x.F @ . o X 5 v C T T U q 8 g E r.q.< < > O . ",
"<.6.0.s.wXuXtX6X5XlX0X5XpX/ .     O           T.:X_.;X/.MXMXNX; =.#.J I I L M m c Z b S o   o O           O       9 l O       . ",
"  d.0.s.u.u.y.O.O.O.vXpXo O   O     |..   O   .X<X<X;X_._ 6 + ; AXnX=.I I I L m 4 Z HXx.S D o *         O X     O e.JX1.1.2.5.6.",
"<.,.x x x z O O # = ..4X^.    ! %X$XKXU.* O O T.+ O .     + O O 6 i SXS.      O O 2 $ 5 .   N.H V C B q B R R Y h 8 o       > ,.",
"5.<.j.3.x uX| O = | kX8X8X^.^.#X&XLX] * O O . . [.O O   . ;.+ + >.>.BXo           O           $ 3 C N q U Q R Y E # O o o     ,.",
"0.s : @   O p.O...X.o.9X9XiXiXaX&X=X%XoXU.XX.X X:X,X_.(./.AX$.p i 6 u I J L L F n.H.b O   .   o H W C U R Q Q Q r.e.E 1.k ,.2.GX",
",.# X O . . 1 = = 1 | pXiXiXaX&XdX3X*X|.}.XXXX:X:X,X;X`.MXp + * X .         $ n.z.H.S Z Z n n V m.W W T Q M.Q Y R e.t.2.2.8.7.h.",
"6.0.4.s.g.wXqXX.gXkXkXlXpXsXsXdXzXKX*X*XoX+X>X:XZX<X`.; * O ).;               n.v.G.x.S D D A H m.m.M.M.P.U q 8 9 9 9 JXg d f : ",
"j.f d d @ . X hXi.O.o.9XbXsXaX&X&XzXKX1X      O     O O o O * ; %.#.K K J J n.C.C.H.v.x.S D .   o   o q B 0 K.*   .     @ > : @ ",
">   X         6Xt = t ..( { o.Q.Y.~.|.1XO           -.* X + - D.:.=.K J J J F M F S S Z.b.c.              8             . X 7.7.",
"k.+             = = * y t vXr O       o * 3X.X X[._._.CX(.(.nXUX>.:.#.#.I I L m c b c l.l.n v         O J.              w.h.,.f ",
"O       o   o p.r =     O   .   o X     O +XOX:X X_._.CXMXMXMXUXD.D.mXBXI L 4 G.F c 4 4 c b.H V C H T W J.T             g X : > ",
"      s.f.f.qXqX@               . * E.oXXX*X>X:X:X-X;XDXSXMXnXAXAXD.6 6 6 ; 2 o o o o     $ 5 A H W W Q M.R R R U j j k : : > f ",
"    3.s.g.wXtXlX    o         &X=X=X%XoX+X1X2X>X:X,XZX`.$.@.@.nX=.>.- - $ $ $ o $ o     o O o & m.m.W .           l l k < > a f ",
"<.<.4.yXuXuXqXO.6XO.4X4X4XiXaXaX=X] .     O KX>X:X_.-.} _ O O o ; u BXS.*.I P n.n.Z Z O o A H c.m.m.O .             L.1.k a a s ",
"<.<.0.3.X.X.X.X.hX5X8X8X9XiXaXdX                T.` ) e O     o O - - S.S.n.n.X     o S S D c.m.m.W B B       O   8 < & @ @ a a ",
"5.6.9.1 1 # # r O.vX0XpXiXsXsXdX               X} ~ ) u MX    O     o BX*.O O .       o o c.c.HXV N B U U U q h h 9 , , X . . > ",
"6.<.s # = X . X y hXjXjXjXsXdXdX@X$X* R.XXXX X[.* * O O p SX>.:.:.=.D.K 6               . A n v N.0 C T U U h h h 9 9 & # # k.s ",
"6.0.s.X . O O O 0XkXvXbXbXbXxX#X@X$X|.|.XXOX}. Xe * * O + * MXnXnXmXBXS.$ J M   O   2 b b 4 4 5 w B W T T U U Y Y r.t.L.2.f : < ",
"k.j.0.a.u.p.p.5XhXgX5X!.Q.Q.Q.#X$X$X|.oXXXXX.X X} e e * + (.>.@.@.p K K BXL J M b Z Z Z A m 7 & 3         R Y Y E L.j < : # # : ",
"<.5.FXs.a.f.qXrX6XX. .| ..o.Q.@X&X%X%XoXoXXXOX>XIXZXZXSXMXDXp u u u 7 ; 7 L L M F F S S Z N.A..             O Q Q UX< , , : : > ",
"s f s UXyXuXvX6XbXkXy /  .o.~.PXdX*X%X*X+X+X>X2XW.) e O   o   + - - ; 7 J F.G G G z.l.x.Z.v 4                 U E j L.w.@ , : > ",
"a > j.3.x z z z | ..vXy /  .( Q.&XzX1X^   O O   O O O             + % % $ L BXb.v.B.V.V.D 4 & N V O         o 9 9 , : j h.t.k.k.",
"> 1 d 1 1 t t t t y O = = r r ( ~.$X%X                O O   O     @.+ + % 6 c HXc b c c 4 2 A n V C B B U U U h 8 , # # : : : > ",
": @ X @ . . . . O . = * * = r e { Y.                O - O   o   K #.% % + 2 6 2 2 2 4 4 2 2 5 H o C T U U U R U 9 , &   o     @ ",
"      . . . . O X O = O.* r xXxXY.U.|.|.O     o . . /.SX(.-.;.%.#.mXBX- + $ 2 b.6 $ 2 2               & R R W L.q , ,           ",
"          X . . O X kX/ * = = r ( Y.%X|.}.XX.X X-XW._.IX(.(.>.:.>.%.6 - + O   O   G.& b.                o J.J.R h ,   X         ",
"        y.. = rXhX7Xy = = r * * e Y.cX*XXXXX.X X-X_._.IXCXMXNXNXDXi -       o   o o o b o               8 B q , 9 8 l l o o     ",
"      3.uX= . .     o   . O X = r ! ].XX3X+XOX:X:X-X;XDX(.>.%.@.p >.- . o   O   o $ $ b b v           w 8 8 8 & & < l k k ,.f ,.",
",.3.,.uX1 .               r * = * e ] U.1X1X*           p _ i u 7 ; #.I       o o $ 4 Z Z b n N N 0 0 q q 8 8 & , g q.q.1.,.,.,.",
"<.<.9.1                 !.t r * * = * 1X3X3X            .   u u - 6 =.=.I w o o G S x.l.Z n A V N N N q B 0 8 & 8 j q.1.1.2.,.,.",
"<.5.9.9.y.O     O   O 7XiXo.r r ] %X*X*XLX                  @.- ; u F.S.*.I P G G x.v.x.D A A V N N B B Q Q Q Q Q r.r.1.2.2.,.<.",
"5.5.0.s.y.y.y.i.i.O.!.8XpXPXfXaX=X=X*XKX}..                 $.- - 6 #.BXS.P P n.z.v.B.B.x.D H V C C B B M.J.K.K.L.L.L.t.2.8.5.6.",
"6.0.0.s.u.y.i.i.i.4X4X9XjXUXfXzXzXzXcX|.}.}.{.o       O _ _ @.* - - 7 K I G.C.C.G.o           H H W T T P.T B h h j l w.h.7.k.h.",
"6.0.d.g.a.p.i.i.i.5X5X0XjXUXsXaX&X|.|.{.|.}.{.W.W.} } $.` @.@.; - % u 6 7 VXi m                 $ m.M.M.K.q 8 & 3 , g j k 2.s f ",
"h.yXGXyXwXf.p.p.0X0X0XpXbXsX^.~.~.Y.].R.XX}. X XW.T.} -.$._ $.u - - - 6 6 6 7                     3 B q 8 8 , & & & 9 < d JX> a ",
"5.5.0.s.uXwXqXtXhXkXkXvXiXo.( ! ! ( U.].XXXX}. XW.T.} -.$.%.(.K u ; - % % 6 2 o o                 5 8 3 & & $ & # X , < : h.: > ",
"f f 3.3.y.p.bXlXrX+.    X / t ! ! ] Y.{.+XOX.X X_.T./.-.-.;.IXK u - - - $ $ $ m c .         O   $ 0 & & & o & X o X X . : : : h.",
"d s s z x x .           o o r ! t ] R.cXLX1XOX:X:X_./.(./.AX$.u ; - - % $ 6 7 M M Z b b Z A n V 3 0 3 & & X , I.X X X X X . . @ ",
"> 1 d d FX                  O   ! ] { '.}.+X2X>X:X,X;X`.MXUXp u - - % % % 6 m F b b b b b n A V N N 8 $ $ o . . o . . o . @ @ > ",
"> a j.uXr                     ~.e ] ] U.{.}. XLXZXZXZX(./.:.AXnX+ - % - % 6 m n.F b b Z A A A H V m.8 & & . o         X . . @ > ",
": > 1 # z                   Q.~.! ! ] ' R.{.[.LXT.} ` ` ) p i NXmXnXD.F.F.G.G.b.z.S Z Z Z D H H A.N 3 & X                   t.k.",
"@ # : > x z z           O  .Q.#X{ ] ] ' U.R.2X[ ' ) ) u u * #   u @.i i 7 7 7 P C.v.S l.S D D c.JX3 & X o                   O # ",
"# : : 1 x z X.t t y y / / o.iX&XY.{ ] ] ^ U.' ~ ~ O     .         + % % ; $ 2 m F l.B.x.x.v.c.A.UXm.3 &                       @ ",
"@ : 1 d y.y.z z y | | /  .o.iXdXKXY.] ^ ^ U.' ~ )                     % $ % % 2 c c v.V.V.A.A.c.m.N.M.W q                   . @ ",
"# : > x g.p.X.| | ..o.o.o.!.aXUX~.{ ] ^ ^ ' ' )                 o O o $ +     o     H.Z Z n v N V B P.M.q h q             o < : ",
"k.> 1 d u.eXp.O.O.O.4X!.8XiXbX@X{ ] ^ ~ ^ ^ ^ [                   o D.$ O o     o   X X 4 4 5 5 5 3 B C B q q h g 9 g g d f s a ",
"= : : 1 x y.uX6X6X0XgXkXjXfX@XQ.( ~ e ^ ^ ' ' U.T.)     O           DX$ o               o o 2 5 3 3 5 T U B h h h g g j j f 7.,.",
"@ @ # : t x X.PXbX0X5X!.!.{ PX( e e e e ^ ' U.W.[.} )   . ; u p p K % O     O             n 5 2 3 3 0 U R U U h h h g g f f k.,."
};
