/* XPM */
static char *_2344_f7ef832f92995b009bc83c2c2ef5b72f3cacf6e0140c763112d770fb96dfcdca[] = {
/* columns rows colors chars-per-pixel */
"64 64 187 2 ",
"   c black",
".  c #000001",
"X  c #000002",
"o  c #010005",
"O  c #010006",
"+  c #010007",
"@  c #020006",
"#  c #010009",
"$  c #03000A",
"%  c #02000C",
"&  c #02000E",
"*  c #04010E",
"=  c #09000B",
"-  c #000311",
";  c #050011",
":  c #060112",
">  c #040014",
",  c #060116",
"<  c #070017",
"1  c #040018",
"2  c #050018",
"3  c #05001D",
"4  c #04021C",
"5  c #06001F",
"6  c #0A011F",
"7  c #040B1A",
"8  c #060020",
"9  c #070022",
"0  c #070023",
"q  c #070024",
"w  c #0B0D26",
"e  c #07002A",
"r  c #07002D",
"t  c #0B002A",
"y  c #0D022A",
"u  c #1B0122",
"i  c #1A0620",
"p  c #13002E",
"a  c #10022E",
"s  c #080232",
"d  c #000A36",
"f  c #0A0038",
"g  c #160032",
"h  c #24012D",
"j  c #22082A",
"k  c #2A0133",
"l  c #3C343F",
"z  c #6E3D3D",
"x  c #205A30",
"c  c #0B0040",
"v  c #0A0740",
"b  c #0F0A42",
"n  c #0B0945",
"m  c #0D0049",
"M  c #050F4A",
"N  c #120246",
"B  c #12024D",
"V  c #140A4C",
"C  c #140B4F",
"Z  c #100E4D",
"A  c #150251",
"S  c #140F57",
"D  c #18035B",
"F  c #0E1456",
"G  c #3C024A",
"H  c #310A4B",
"J  c #360B4F",
"K  c #182743",
"L  c #073E58",
"P  c #22245C",
"I  c #101462",
"U  c #111667",
"Y  c #121666",
"T  c #14176C",
"R  c #13186C",
"E  c #12196F",
"W  c #1E037A",
"Q  c #1F037E",
"!  c #141971",
"~  c #131B75",
"^  c #141D7A",
"/  c #1C1B7E",
"(  c #113766",
")  c #132177",
"_  c #112D70",
"`  c #143977",
"'  c #400045",
"]  c #480F6A",
"[  c #5E057B",
"{  c #601677",
"}  c #074E62",
"|  c #1D5564",
" . c #1A477E",
".. c #816F63",
"X. c #A6756A",
"o. c #3CC13E",
"O. c #40CE40",
"+. c #DBDB0D",
"@. c #E8E806",
"#. c #200384",
"$. c #340791",
"%. c #32109B",
"&. c #132B80",
"*. c #132E81",
"=. c #102E97",
"-. c #363E84",
";. c #401893",
":. c #730084",
">. c #700495",
",. c #6A3C86",
"<. c #5802A3",
"1. c #4921B8",
"2. c #512EBC",
"3. c #1C4F87",
"4. c #12438A",
"5. c #115190",
"6. c #105491",
"7. c #365A9A",
"8. c #0A7088",
"9. c #0E7DA3",
"0. c #2369A5",
"q. c #6D46B9",
"w. c #4D1CC6",
"e. c #4E1BC9",
"r. c #5C27DB",
"t. c #5513E0",
"y. c #5B0DF2",
"u. c #4878CD",
"i. c #7A52F6",
"p. c #92009F",
"a. c #A83799",
"s. c #8D12A0",
"d. c #891FA9",
"f. c #8209B3",
"g. c #9105B5",
"h. c #9605BA",
"j. c #B100BB",
"k. c #AC4290",
"l. c #9F04C3",
"z. c #A304C7",
"x. c #A700CC",
"c. c #A706CE",
"v. c #A803CC",
"b. c #A906D0",
"n. c #AA06D1",
"m. c #B103D5",
"M. c #B404DA",
"N. c #C400C6",
"B. c #C100C8",
"V. c #CD0DDB",
"C. c #C302E8",
"Z. c #C403E9",
"A. c #C801EC",
"S. c #D305E6",
"D. c #CC01F1",
"F. c #D500FA",
"G. c #D700FC",
"H. c #DA00FF",
"J. c #E108E9",
"K. c magenta",
"L. c #CA40D7",
"P. c #F550FB",
"I. c #068C8D",
"U. c #0D8EAA",
"Y. c #0C99AF",
"T. c #09ABA4",
"R. c #0BB1B9",
"E. c #0AB4BB",
"W. c #06CCAE",
"Q. c #06D7B8",
"!. c #4893CF",
"~. c #4F93DC",
"^. c #53A0DC",
"/. c #54A1DD",
"(. c #5884E0",
"). c #09C2C0",
"_. c #09C5C2",
"`. c #06E5C6",
"'. c #07EBD2",
"]. c #06F9D8",
"[. c #A8DFFC",
"{. c #AFE6FF",
"}. c #AEEFFF",
"|. c #B7ECFF",
" X c #C7F6FF",
".X c #E1FFFF",
"XX c #E3FFFF",
/* pixels */
"                                                                                                                                ",
"                                                                                                                                ",
"                                                              u   g.g.g.g.                                                      ",
"                                                        C.= A.H.H.H.H.H.H.z.A.h                                                 ",
"                                                        H.H.H.H.H.H.H.A.H.H.H.H.H.                                              ",
"                                                        H.h.g.H.H.H.H.H.H.H.m.H.g.                                              ",
"                                                + + m m m h.H.H.H.H.H.C.H.H.H.H.H.H.H.                                          ",
"                                            3 c & f & q q q q z.H.H.H.A.H.H.H.H.A.H.                                            ",
"                                            P q q -.q q q q q %     h H.g.H.A.H.H.H.                                            ",
"                                            q q q q + q q q q 5                 g.H.H.                                          ",
"                                          q q q q > + q q q q D.                    H.                                          ",
"                                      . q q q q m 8 H.>.C.h.x.l.                    g.                                          ",
"                                          k Z.N <.z N.#.v.F.1.G                                                                 ",
"                                          c.[ {.- #.M H.H.H.H.                                                                  ",
"                                            Z.XXXX=.M d H.H.^ (                                                                 ",
"                                          M.H.L ).).).^ _.h.H.^                                                                 ",
"                                        H.H.R.^ U v ^ ^ ^ / H.f.!                                                               ",
"                                    G.H.H.^ ^ r ^ ^ ^ ^ ].C H.H.^                                                               ",
"                                    n.H.^ ^ ^ ^ ].^ ^ ^ ].h.H.l.!                                                               ",
"                                    b.$.^ ^ ^ ^ ].].].^ ^ / g.S ^                                                               ",
"                                    ' 2 ].^ ^ ^ ^ 6.].^ T ^ X.a.^ 6.                                                            ",
"                                    }.I ^ ^ Y.^ ].^ ^ ^ ^ a.@.@.^ ^ s                                                           ",
"                                    ~.n ^ ^ ].^ ].^ ].].^ k.a.l ].].&.                                                          ",
"                                      } 6.^ 8.U ^ E v ].U.@...  ^ ^ ^ ^                                                         ",
"                                      n ).^ ^ ].^ ^ r ^ *.+.V     ].^ ^ ].                                                      ",
"                                      } ^ ^ ].^ ^ ^ ^ ^ E.'.        ^ ^ ^ r                                                     ",
"                                      E.^ ^ ^ ^ ^ ^ ^ ^ ].].        ~ ].^ ^                                                     ",
"                                    I 4.).^ ^ ^ ^ ^ ^ ^ 5.5.V         ^ ^ ^ R.                                                  ",
"                                    I U U L ^ ^ ^ ^ v ^ ^ v S         4 ].6.).                                                  ",
"                                      ; D K.^ ^ ^ Y.D y.              K.d.(.1.1.                                                ",
"                                      ; 1.r 9.^ ^ ^ #.y.;                 K.q.XX                                                ",
"                                    7 /.3.^ 6.^ ^  .0.0.!.^.                K 7.J.V.                                            ",
"                                    ` 0.^ ^ 9.^ v q q q q #                         j K.s.                                      ",
"                                      ^ ].].9.].q + q q q q q                             d.K.i                                 ",
"                                    e r ^ ].^ D K.1.1.y.q q q                                   K.K.                            ",
"                                    ^ ^ ^ ^ I.1.K.W #.W 5 w                                         {                           ",
"                                    ^ 4.^ ].Q O.1.1.y.+ q q +                                                                   ",
"                                  u.2.].r D 1.1.1.1.y.q q o.q                                                                   ",
"                                  u.{.|.] D B + q + + q q q q .                                                                 ",
"                                  w.e.t.P.t a q q q q q q q q q                                                                 ",
"                                H y.i.r.t t a q K.q q q q q B.q                                                                 ",
"                              P.t (.[.t {.q :.q q q q q q g K.q                                                                 ",
"                            ] P.,.{..X(.  q q q q q q + q q q q O                                                               ",
"                            J   L.   X    q q q q q q   q q K.p O                                                               ",
"                                          q q q q q +   o q q q 0                                                               ",
"                                          q q q q q       # q q q +                                                             ",
"                                          + q + q K.        q q q q                                                             ",
"                                            1 q q q           q q q q                                                           ",
"                                            q q q q             q q q q                                                         ",
"                                            q q q q             . O.q q q                                                       ",
"                                          + q q q q +             q q q q                                                       ",
"                                          + p.q q q +               q q q +                                                     ",
"                                          X q q q q                 q q q q                                                     ",
"                                            q q q q                 9 j.q q                                                     ",
"                                            q O.q q                   q q q                                                     ",
"                                            x q q >                 b F q q                                                     ",
"                                        ^ Y q q K.<                   ^ O.q ,                                                   ",
"                                        y ^ %.1.y.                  _ ].^ ^ ^                                                   ",
"                                          ^ A 1.1.Z             T.^ ].^ ^ ^ ^ y                                                 ",
"                                        $ ^ ].^ ^ :             @ ].].].].].Q.y                                                 ",
"                                      R | ) `.^ ^ *                         @                                                   ",
"                            y ;.S.^ ^ ^ ^ ].^ ^ ^ :                                                                             ",
"                            W.W.W.W.^ W.].].].].].                                                                              ",
"                                    6                                                                                           "
};
